#!OML:ASF I:\Actors\actors\Patient Classification 1\Patient 1\Session 1\Subject1.ASF
:FULLY-SPECIFIED
:DEGREES
888
root -0.280005 17.5969 8.11943 11.1609 -18.5575 -7.30042
lowerback 1.96432 -3.14991 2.92636
upperback -10.2342 -3.70301 4.44605
thorax -12.0045 -1.8469 3.65913
lowerneck -15.5382 -0.219132 2.33734
upperneck 25.97 0.0225184 -3.97531
head 10.9462 -0.30387 -1.84591
rclavicle -3.29983e-014 1.07344e-014
rhumerus -46.0999 23.8034 -93.0522
rradius 78.8491
rwrist -8.34009
rhand 13.939 -64.3123
rfingers 7.12502
rthumb 38.852 270.125
lclavicle -3.29983e-014 1.07344e-014
lhumerus -45.4939 -43.0507 112.233
lradius 72.4092
lwrist 38.8899
lhand -8.72364 22.0108
lfingers 7.12502
lthumb 17.2124 51.2685
rfemur -9.35921 26.2403 19.2993
rtibia 4.41655
rfoot -8.64862 -12.6435
rtoes -6.94572
lfemur 11.2188 -45.3804 -21.8364
ltibia -4.50445
lfoot -51.5695 61.2773
ltoes 31.2061
889
root -0.291601 17.5917 8.09523 10.8877 -17.6627 -7.11964
lowerback 1.97837 -2.67455 2.74709
upperback -10.1561 -3.09012 4.17109
thorax -11.9444 -1.54577 3.37818
lowerneck -15.6952 -0.646444 1.82173
upperneck 26.1504 -0.597353 -3.40085
head 11.0262 -0.564616 -1.63881
rclavicle -5.50634e-014 3.57812e-014
rhumerus -45.5504 25.6912 -93.8484
rradius 77.7611
rwrist -6.92664
rhand 15.4531 -58.0886
rfingers 7.12502
rthumb 40.278 276.77
lclavicle -5.50634e-014 3.57812e-014
lhumerus -45.3362 -42.2903 110.401
lradius 74.4133
lwrist 41.1519
lhand -18.0941 16.3673
lfingers 7.12502
lthumb 8.17952 46.189
rfemur -8.96181 26.1766 19.3188
rtibia 4.2705
rfoot -8.80928 -13.322
rtoes -6.72217
lfemur 10.9742 -45.3606 -21.6407
ltibia -4.43279
lfoot -49.0724 61.282
ltoes 30.0275
890
root -0.30233 17.5831 8.07037 10.6931 -16.7538 -6.97078
lowerback 1.93533 -2.16164 2.68249
upperback -10.0764 -2.41851 3.91419
thorax -11.8522 -1.22651 3.0439
lowerneck -15.7173 -1.0789 1.31207
upperneck 26.153 -1.17827 -2.99471
head 11.0205 -0.826117 -1.4843
rclavicle -1.03368e-014 2.54444e-014
rhumerus -44.6278 26.8559 -93.8398
rradius 80.8555
rwrist -7.0085
rhand 17.8177 -60.5661
rfingers 7.12502
rthumb 42.4969 275.013
lclavicle -1.03368e-014 2.54444e-014
lhumerus -43.9797 -41.0815 107.517
lradius 77.7238
lwrist 42.9395
lhand -23.9519 14.1521
lfingers 7.12502
lthumb 2.52384 44.1169
rfemur -8.6733 26.0644 19.333
rtibia 4.17303
rfoot -8.99384 -13.9782
rtoes -6.17464
lfemur 10.7232 -45.4394 -21.4014
ltibia -4.44331
lfoot -46.9279 61.2339
ltoes 29.0146
891
root -0.307492 17.5808 8.04903 10.408 -15.5614 -6.86721
lowerback 1.954 -1.8201 2.86874
upperback -9.98956 -1.9546 3.67825
thorax -11.7903 -1.02977 2.62277
lowerneck -15.4437 -1.43001 0.911372
upperneck 25.9976 -1.64476 -2.69418
head 10.9035 -1.03738 -1.36439
rclavicle 4.4975e-014 9.54166e-015
rhumerus -43.0125 27.2377 -93.2615
rradius 84.7072
rwrist -6.66139
rhand 16.511 -61.4501
rfingers 7.12502
rthumb 41.272 273.721
lclavicle 4.4975e-014 9.54166e-015
lhumerus -42.3073 -39.2805 104.287
lradius 81.393
lwrist 43.2111
lhand -27.4208 13.9285
lfingers 7.12502
lthumb -0.82655 43.9066
rfemur -8.16695 25.9563 19.4931
rtibia 4.02912
rfoot -9.13769 -14.9644
rtoes -5.85295
lfemur 10.3969 -45.306 -21.0141
ltibia -4.41333
lfoot -43.9615 60.9556
ltoes 27.3166
892
root -0.306854 17.5906 8.02975 9.98945 -13.9711 -6.80856
lowerback 2.80154 -1.71807 3.53918
upperback -10.3883 -1.72707 3.28568
thorax -12.827 -1.00244 1.85758
lowerneck -14.8419 -1.6924 0.637186
upperneck 26.4467 -2.06537 -2.25884
head 10.9525 -1.20201 -1.21717
rclavicle -2.35063e-014 -1.19271e-014
rhumerus -41.5949 26.4128 -92.6079
rradius 88.8334
rwrist -4.62367
rhand 12.8517 -58.7945
rfingers 7.12502
rthumb 37.8258 275.359
lclavicle -2.35063e-014 -1.19271e-014
lhumerus -41.8699 -37.1527 101.741
lradius 85.3232
lwrist 43.8784
lhand -32.0243 8.49434
lfingers 7.12502
lthumb -5.2722 38.4088
rfemur -7.37469 25.9588 19.8219
rtibia 3.79951
rfoot -9.31657 -16.4382
rtoes -5.25682
lfemur 9.90855 -44.9242 -20.4123
ltibia -4.26833
lfoot -40.0241 60.2758
ltoes 25.0688
893
root -0.319697 17.6024 8.00834 9.80498 -12.7751 -6.76823
lowerback 2.47002 -1.61507 3.81414
upperback -10.1369 -1.61247 2.99848
thorax -12.3426 -0.98902 1.34722
lowerneck -15.1764 -1.83152 0.530625
upperneck 26.8555 -2.36299 -1.79816
head 11.1764 -1.28793 -1.08427
rclavicle 8.02593e-015 -3.39922e-014
rhumerus -38.4365 25.905 -91.4413
rradius 92.9483
rwrist -2.56156
rhand 11.8737 -56.9351
rfingers 7.12502
rthumb 36.9012 276.975
lclavicle 8.02593e-015 -3.39922e-014
lhumerus -39.6417 -34.9034 98.2126
lradius 89.0235
lwrist 44.3134
lhand -35.7384 3.35038
lfingers 7.12502
lthumb -8.85735 33.1445
rfemur -7.0363 26.1297 20.0371
rtibia 3.79995
rfoot -9.50556 -17.6372
rtoes -4.24968
lfemur 9.40401 -44.7752 -19.8149
ltibia -4.2265
lfoot -37.7197 59.7189
ltoes 23.9556
894
root -0.336883 17.6176 7.98806 9.61275 -11.6822 -6.63954
lowerback 3.10537 -1.54694 3.94532
upperback -10.5767 -1.48054 2.69838
thorax -13.2717 -0.961188 0.976302
lowerneck -15.0135 -1.94297 0.417802
upperneck 27.8406 -2.64239 -1.31898
head 11.5264 -1.36378 -0.94248
rclavicle -4.72114e-015 -1.36167e-014
rhumerus -36.6223 25.6188 -90.8054
rradius 97.2494
rwrist -0.149947
rhand 7.04618 -54.0898
rfingers 7.12502
rthumb 32.3197 278.769
lclavicle -4.72114e-015 -1.36167e-014
lhumerus -38.9995 -32.0915 95.9255
lradius 92.6731
lwrist 43.8656
lhand -38.1334 -1.45329
lfingers 7.12502
lthumb -11.1679 28.2295
rfemur -6.7607 26.1854 20.1564
rtibia 3.89508
rfoot -9.69992 -18.6111
rtoes -3.17067
lfemur 9.03553 -44.8092 -19.4501
ltibia -4.21764
lfoot -35.7746 59.2967
ltoes 23.0834
895
root -0.353792 17.6331 7.96718 9.44156 -10.7957 -6.52694
lowerback 3.16929 -1.42194 3.98298
upperback -10.5311 -1.32514 2.45545
thorax -13.2611 -0.904437 0.665908
lowerneck -15.1093 -2.04187 0.241891
upperneck 28.1955 -2.90357 -0.760421
head 11.6946 -1.42487 -0.749898
rclavicle -3.70485e-014 3.23274e-014
rhumerus -34.0094 26.1335 -90.0456
rradius 101.85
rwrist -0.754496
rhand -1.02836 -52.0784
rfingers 7.12502
rthumb 24.605 279.483
lclavicle -3.70485e-014 3.23274e-014
lhumerus -37.3341 -29.1565 93.5769
lradius 95.8952
lwrist 42.9717
lhand -39.1341 -6.17972
lfingers 7.12502
lthumb -12.133 23.4485
rfemur -6.62463 26.1115 20.2448
rtibia 4.13144
rfoot -9.95759 -19.266
rtoes -2.1783
lfemur 8.72806 -44.7908 -19.1474
ltibia -4.23944
lfoot -34.0446 58.9597
ltoes 22.0454
896
root -0.367271 17.6447 7.94507 9.28762 -9.88818 -6.47809
lowerback 2.79807 -1.30715 4.02356
upperback -10.1095 -1.21054 2.31248
thorax -12.5304 -0.852812 0.439669
lowerneck -15.4486 -2.15336 0.00501354
upperneck 28.0076 -3.14065 -0.242169
head 11.7044 -1.48574 -0.553922
rclavicle 1.84249e-014 -1.39025e-014
rhumerus -30.6486 26.4817 -88.5677
rradius 106.078
rwrist 0.549376
rhand -5.89586 -51.6358
rfingers 7.12502
rthumb 19.9325 279.366
lclavicle 1.84249e-014 -1.39025e-014
lhumerus -35.1213 -26.2266 91.6148
lradius 98.6738
lwrist 42.0121
lhand -39.4074 -11.1893
lfingers 7.12502
lthumb -12.3965 18.4232
rfemur -6.54048 25.8827 20.3721
rtibia 4.39007
rfoot -10.2473 -19.8196
rtoes -1.55721
lfemur 8.12583 -44.2275 -18.5444
ltibia -4.17753
lfoot -31.5911 58.2056
ltoes 20.4254
